<svg width="1280" height="720" viewBox="0 0 1280 720" fill="none" xmlns="http://www.w3.org/2000/svg">
  <rect width="1280" height="720" fill="#F3F7FF" />
  <rect x="164" y="78" width="952" height="564" rx="28" fill="#FFFFFF" />
  <rect x="248" y="150" width="784" height="70" rx="18" fill="#E2F0FF" />
  <rect x="248" y="250" width="784" height="86" rx="18" fill="#F3F8FF" />
  <rect x="248" y="360" width="784" height="86" rx="18" fill="#F3F8FF" />
  <rect x="248" y="470" width="784" height="86" rx="18" fill="#F3F8FF" />
  <circle cx="312" cy="293" r="24" fill="#0B6FA4" />
  <path d="M300 294L309 304L326 284" stroke="#FFFFFF" stroke-width="6" stroke-linecap="round" stroke-linejoin="round" />
  <circle cx="312" cy="403" r="24" fill="#0B6FA4" />
  <path d="M300 404L309 414L326 394" stroke="#FFFFFF" stroke-width="6" stroke-linecap="round" stroke-linejoin="round" />
  <circle cx="312" cy="513" r="24" fill="#0B6FA4" />
  <path d="M300 514L309 524L326 504" stroke="#FFFFFF" stroke-width="6" stroke-linecap="round" stroke-linejoin="round" />
  <rect x="356" y="278" width="540" height="22" rx="11" fill="#7B8EA9" fill-opacity="0.4" />
  <rect x="356" y="316" width="490" height="18" rx="9" fill="#7B8EA9" fill-opacity="0.3" />
  <rect x="356" y="388" width="540" height="22" rx="11" fill="#7B8EA9" fill-opacity="0.4" />
  <rect x="356" y="426" width="490" height="18" rx="9" fill="#7B8EA9" fill-opacity="0.3" />
  <rect x="356" y="498" width="540" height="22" rx="11" fill="#7B8EA9" fill-opacity="0.4" />
  <rect x="356" y="536" width="490" height="18" rx="9" fill="#7B8EA9" fill-opacity="0.3" />
</svg>
